<?xml version="1.0" standalone="no"?>
<!DOCTYPE svg PUBLIC "-//W3C//DTD SVG 20010904//EN"
 "http://www.w3.org/TR/2001/REC-SVG-20010904/DTD/svg10.dtd">
<svg version="1.0" xmlns="http://www.w3.org/2000/svg"
 width="95.000000pt" height="99.000000pt" viewBox="0 0 95.000000 99.000000"
 preserveAspectRatio="xMidYMid meet">

<g transform="translate(0.000000,99.000000) scale(0.100000,-0.100000)"
fill="#000000" stroke="none">
<path d="M359 902 c-106 -28 -193 -92 -254 -187 -83 -129 -87 -306 -9 -436 93
-155 265 -238 433 -209 143 24 257 108 322 237 33 66 34 72 34 183 0 103 -3
121 -26 170 -33 70 -123 168 -187 203 -54 29 -158 57 -212 56 -19 0 -64 -8
-101 -17z m244 -126 c94 -43 152 -117 177 -224 32 -135 -46 -289 -178 -353
-66 -32 -174 -37 -243 -13 -61 22 -139 89 -173 148 -104 180 0 413 208 467 52
14 154 2 209 -25z"/>
<path d="M434 670 c-11 -4 -26 -22 -33 -38 -11 -25 -10 -35 3 -61 15 -27 21
-31 60 -31 35 0 47 5 60 25 23 34 20 62 -9 90 -25 26 -45 30 -81 15z"/>
<path d="M610 559 c-58 -26 -87 -53 -116 -111 -27 -54 -31 -88 -20 -170 8 -64
16 -69 69 -42 89 45 135 111 145 206 6 61 -6 138 -21 138 -7 0 -32 -10 -57
-21z"/>
</g>
</svg>
